<?xml version="1.0" standalone="no"?>
<!DOCTYPE svg PUBLIC "-//W3C//DTD SVG 20010904//EN"
 "http://www.w3.org/TR/2001/REC-SVG-20010904/DTD/svg10.dtd">
<svg version="1.0" xmlns="http://www.w3.org/2000/svg"
 width="1692.000000pt" height="510.000000pt" viewBox="0 0 1692.000000 510.000000"
 preserveAspectRatio="xMidYMid meet">
<metadata>
Created by potrace 1.16, written by Peter Selinger 2001-2019
</metadata>
<g transform="translate(0.000000,510.000000) scale(0.100000,-0.100000)"
fill="#2a2b2b" stroke="none">
<path d="M2630 4495 l-605 -605 -520 0 -520 0 -493 -493 c-270 -270 -492 -495
-492 -500 0 -4 275 -7 610 -7 l610 0 0 -612 0 -613 613 613 612 612 515 0 515
0 493 493 c270 270 492 495 492 500 0 4 -272 7 -605 7 l-605 0 0 605 c0 333
-3 605 -8 605 -4 0 -279 -272 -612 -605z m360 -310 l0 -295 -297 0 -298 0 295
295 c162 162 296 295 297 295 2 0 3 -133 3 -295z m-1465 -795 l-240 -240 -335
0 -335 0 240 240 240 240 335 0 335 0 -240 -240z m1050 0 l-240 -240 -340 0
-340 0 240 240 240 240 340 0 340 0 -240 -240z m1030 0 l-240 -240 -330 0
-330 0 240 240 240 240 330 0 330 0 -240 -240z m-1535 -503 c0 -1 -135 -137
-300 -302 l-300 -300 0 303 0 302 300 0 c165 0 300 -1 300 -3z"/>
<path d="M8720 3050 l0 -400 80 0 80 0 0 168 c0 144 3 173 20 210 33 73 116
91 160 35 18 -24 20 -41 20 -219 l0 -194 81 0 81 0 -4 213 c-3 198 -5 215 -26
259 -13 27 -38 56 -56 68 -69 42 -176 35 -243 -16 l-33 -25 0 150 0 151 -80 0
-80 0 0 -400z"/>
<path d="M5440 3026 l0 -376 149 0 c169 0 229 9 313 47 127 57 185 172 176
354 -4 85 -9 107 -37 164 -39 79 -96 126 -190 157 -54 17 -99 22 -238 26
l-173 4 0 -376z m311 232 c91 -27 162 -126 163 -227 0 -73 -18 -124 -63 -174
-45 -50 -102 -76 -186 -84 l-65 -6 0 252 0 251 56 0 c31 0 74 -5 95 -12z"/>
<path d="M10690 3335 l0 -65 160 -2 159 -3 -169 -245 -170 -245 0 -62 0 -63
265 0 265 0 0 60 0 60 -175 0 c-96 0 -175 3 -175 6 0 4 77 116 170 250 l170
243 0 65 0 66 -250 0 -250 0 0 -65z"/>
<path d="M7500 3336 l-65 -23 -3 -56 -3 -57 -49 0 -50 0 0 -55 0 -55 50 0 50
0 0 -147 c0 -164 10 -215 47 -255 38 -40 71 -49 159 -46 l79 3 3 61 3 61 -48
-4 c-26 -2 -54 0 -61 5 -22 15 -32 79 -32 205 l0 117 65 0 65 0 0 55 0 55 -65
0 -65 0 0 80 c0 44 -3 80 -7 79 -5 0 -37 -11 -73 -23z"/>
<path d="M12578 3336 l-68 -21 0 -57 0 -58 -50 0 -50 0 0 -55 0 -55 49 0 49 0
4 -172 c3 -159 5 -176 26 -209 33 -54 75 -70 174 -67 l83 3 0 60 0 60 -53 -3
c-52 -4 -52 -3 -67 32 -11 25 -15 73 -15 166 l0 130 65 0 65 0 0 55 0 55 -65
0 -65 0 0 80 c0 44 -3 80 -7 79 -5 -1 -38 -11 -75 -23z"/>
<path d="M6310 3200 c-112 -38 -166 -140 -158 -299 7 -131 56 -206 161 -246
61 -23 235 -18 285 8 31 17 32 20 32 77 0 33 -3 60 -7 60 -5 0 -35 -11 -68
-25 -122 -50 -228 -20 -255 74 l-9 31 190 0 189 0 0 40 c0 21 -5 63 -11 92
-23 109 -71 166 -161 193 -68 20 -121 19 -188 -5z m160 -113 c25 -19 50 -60
50 -79 0 -16 -11 -18 -110 -18 -105 0 -110 1 -110 21 0 12 15 36 34 55 28 28
41 34 78 34 23 0 50 -6 58 -13z"/>
<path d="M7923 3210 c-90 -21 -143 -83 -143 -167 0 -91 36 -128 160 -168 30
-10 61 -22 68 -28 17 -13 15 -62 -3 -77 -27 -22 -96 -23 -157 -3 l-58 20 0
-32 c0 -18 -3 -46 -6 -63 -6 -29 -4 -31 32 -41 22 -6 80 -11 129 -11 102 0
151 17 200 69 24 26 30 41 33 95 7 101 -27 145 -138 181 -98 31 -123 61 -82
98 22 20 102 23 151 6 18 -6 33 -10 35 -8 2 2 6 29 9 61 l5 56 -62 11 c-70 12
-125 13 -173 1z"/>
<path d="M8402 3202 c-66 -24 -114 -69 -144 -136 -32 -72 -32 -209 0 -281 48
-106 118 -145 257 -145 136 0 135 0 135 77 0 63 -1 65 -22 58 -13 -4 -50 -9
-84 -12 -57 -5 -63 -3 -96 25 -59 53 -75 151 -37 230 17 35 32 49 67 65 40 17
52 18 95 8 28 -6 52 -9 55 -6 3 3 7 29 10 59 5 63 3 65 -108 72 -58 4 -87 0
-128 -14z"/>
<path d="M9515 3211 c-80 -21 -142 -79 -170 -160 -20 -59 -20 -194 1 -254 19
-57 93 -128 152 -145 59 -18 208 -14 262 6 l45 17 3 64 c3 72 12 68 -88 32
-119 -44 -217 -9 -245 87 l-6 22 192 0 192 0 -7 69 c-11 128 -56 209 -132 243
-49 21 -153 31 -199 19z m144 -138 c17 -16 33 -40 37 -55 l6 -28 -115 0 -116
0 10 30 c28 77 121 105 178 53z"/>
<path d="M10039 3207 c-98 -28 -148 -99 -135 -192 11 -68 43 -99 135 -130 112
-37 138 -72 84 -115 -24 -19 -37 -21 -84 -17 -31 3 -70 12 -87 21 -31 16 -32
16 -37 -7 -4 -13 -5 -43 -3 -67 3 -43 4 -45 43 -53 66 -14 215 -4 258 17 85
42 120 143 78 228 -23 48 -60 74 -149 103 -51 16 -82 37 -82 56 0 5 9 18 20
29 22 22 90 27 149 10 19 -5 37 -7 40 -5 2 3 6 29 9 59 4 49 2 54 -19 59 -53
15 -175 17 -220 4z"/>
<path d="M11425 3211 c-139 -37 -214 -179 -185 -352 18 -105 71 -173 161 -204
58 -21 211 -19 269 3 l45 17 3 64 c3 72 12 68 -88 32 -119 -44 -217 -9 -245
87 l-6 22 192 0 192 0 -7 64 c-14 135 -52 208 -129 245 -48 23 -154 35 -202
22z m144 -138 c17 -16 33 -40 37 -55 l6 -28 -116 0 c-64 0 -116 2 -116 5 0 20
43 83 62 92 43 21 95 15 127 -14z"/>
<path d="M12081 3205 c-24 -7 -54 -24 -67 -36 l-24 -22 0 26 c0 27 0 27 -75
27 l-75 0 0 -275 0 -275 74 0 74 0 4 168 c4 195 16 234 81 265 49 24 86 13
109 -34 15 -29 18 -63 18 -216 l0 -183 75 0 75 0 0 213 c0 184 -3 217 -19 252
-22 49 -48 73 -98 91 -48 17 -96 16 -152 -1z"/>
<path d="M13095 3206 c-31 -14 -64 -46 -83 -81 -10 -17 -11 -13 -12 28 l0 47
-65 0 -65 0 0 -275 0 -275 75 0 75 0 0 141 c0 167 11 220 53 255 27 22 38 25
79 22 l49 -5 -3 76 -3 76 -35 2 c-19 2 -48 -3 -65 -11z"/>
<path d="M14125 3208 c-16 -6 -45 -21 -62 -35 l-33 -24 0 25 c0 25 -2 26 -70
26 l-70 0 0 -275 0 -275 75 0 75 0 0 163 c0 184 8 225 51 261 38 32 60 33 96
2 l28 -24 3 -201 4 -201 74 0 74 0 0 163 c0 184 8 225 51 261 38 32 60 33 96
2 l28 -24 3 -201 4 -201 74 0 75 0 -3 223 c-3 202 -5 226 -24 262 -25 47 -64
73 -125 81 -58 8 -121 -10 -163 -47 l-34 -29 -29 29 c-46 46 -131 62 -198 39z"/>
<path d="M6752 2983 c3 -208 4 -220 27 -259 36 -64 86 -87 176 -82 64 3 80 8
119 35 l46 33 0 -30 0 -30 70 0 70 0 0 275 0 275 -75 0 -75 0 0 -152 c0 -172
-9 -219 -51 -260 -24 -24 -35 -29 -70 -26 -32 2 -47 10 -63 31 -19 26 -21 44
-24 218 l-4 189 -74 0 -75 0 3 -217z"/>
<path d="M13260 2992 c0 -208 0 -209 28 -262 37 -74 73 -92 174 -88 67 3 82 7
122 35 l46 33 0 -30 0 -30 70 0 70 0 0 275 0 275 -74 0 -74 0 -4 -172 c-4
-187 -12 -221 -62 -254 -38 -24 -95 -15 -120 19 -19 26 -21 44 -24 218 l-3
189 -75 0 -74 0 0 -208z"/>
<path d="M5545 2226 c-67 -30 -95 -84 -95 -182 l0 -64 -55 0 -55 0 0 -60 0
-60 55 0 55 0 0 -220 0 -220 75 0 75 0 0 220 0 220 60 0 60 0 0 60 0 60 -60 0
-60 0 0 49 c0 33 6 56 19 72 17 22 22 23 59 13 40 -11 40 -10 46 19 13 63 7
94 -16 101 -40 10 -132 6 -163 -8z"/>
<path d="M8361 2218 c-57 -29 -82 -77 -89 -169 l-5 -69 -48 0 -49 0 0 -60 0
-60 50 0 50 0 0 -220 0 -220 80 0 80 0 0 220 0 220 60 0 60 0 0 60 0 60 -60 0
-60 0 0 53 c0 79 32 102 101 73 14 -6 18 2 24 54 4 34 4 64 0 68 -3 4 -39 8
-78 10 -60 3 -80 -1 -116 -20z"/>
<path d="M14722 2219 c-55 -28 -81 -78 -89 -170 l-6 -69 -48 0 -49 0 0 -60 0
-60 50 0 50 0 0 -220 0 -220 80 0 80 0 0 220 0 220 60 0 60 0 0 60 0 60 -60 0
-60 0 0 53 c0 79 32 102 101 73 13 -6 18 1 22 31 12 70 9 90 -15 97 -50 13
-133 6 -176 -15z"/>
<path d="M11270 2080 l0 -150 -41 27 c-33 21 -57 28 -109 31 -158 9 -241 -88
-243 -283 -2 -195 78 -295 236 -295 50 0 109 20 139 47 17 15 18 14 18 -10 0
-27 0 -27 75 -27 l75 0 0 405 0 405 -75 0 -75 0 0 -150z m-61 -236 c78 -65 75
-230 -5 -293 -100 -78 -205 67 -160 222 27 94 100 126 165 71z"/>
<path d="M15540 1825 l0 -405 75 0 75 0 0 165 c0 210 19 266 96 281 91 17 107
-18 112 -258 l4 -188 75 0 75 0 -4 218 c-3 201 -5 220 -25 259 -32 59 -75 86
-144 91 -66 5 -117 -10 -159 -45 l-30 -25 0 156 0 156 -75 0 -75 0 0 -405z"/>
<path d="M5870 2135 l0 -65 65 0 65 0 0 65 0 65 -65 0 -65 0 0 -65z"/>
<path d="M6090 2135 l0 -65 65 0 65 0 0 65 0 65 -65 0 -65 0 0 -65z"/>
<path d="M2440 1796 l0 -376 143 0 c232 0 328 28 412 122 58 65 79 132 79 253
0 132 -21 194 -92 265 -86 85 -139 101 -364 107 l-178 5 0 -376z m336 220 c84
-39 134 -122 134 -223 0 -63 -25 -131 -63 -172 -38 -41 -115 -71 -184 -71
l-63 0 0 245 0 245 63 0 c44 0 77 -7 113 -24z"/>
<path d="M3220 1795 l0 -375 225 0 225 0 0 65 0 65 -145 0 -145 0 0 310 0 310
-80 0 -80 0 0 -375z"/>
<path d="M3790 1796 l0 -376 80 0 80 0 0 156 0 157 45 -6 c25 -2 54 -12 64
-21 10 -9 42 -77 70 -151 l53 -135 89 0 89 0 -19 48 c-71 179 -107 261 -128
289 -27 37 -28 43 -9 43 23 0 78 51 92 87 21 48 17 130 -7 179 -16 35 -32 49
-77 71 -55 27 -64 28 -239 32 l-183 3 0 -376z m317 225 c56 -35 53 -115 -6
-146 -17 -8 -58 -18 -91 -22 l-60 -6 0 97 0 96 63 0 c44 0 71 -6 94 -19z"/>
<path d="M7100 1795 l0 -375 225 0 225 0 0 65 0 65 -145 0 -145 0 0 310 0 310
-80 0 -80 0 0 -375z"/>
<path d="M11840 1796 l0 -376 75 0 75 0 0 155 0 155 35 0 c76 0 88 -15 160
-207 l38 -103 89 0 c48 0 88 2 88 5 0 15 -133 324 -148 345 l-19 25 36 20 c19
11 46 36 59 55 21 31 23 44 20 112 -4 92 -21 121 -94 158 -46 23 -60 25 -231
28 l-183 4 0 -376z m310 225 c53 -38 52 -108 -3 -141 -23 -14 -50 -20 -94 -20
l-63 0 0 96 0 97 68 -7 c40 -4 77 -14 92 -25z"/>
<path d="M8728 2108 l-58 -20 0 -54 0 -54 -55 0 -55 0 0 -60 0 -60 55 0 55 0
0 -165 c0 -148 2 -170 21 -206 26 -53 81 -78 166 -79 90 0 93 2 93 71 l0 59
-44 -6 c-36 -5 -47 -3 -65 15 -19 19 -21 32 -21 166 l0 145 60 0 60 0 0 60 0
60 -60 0 -60 0 0 75 c0 86 1 86 -92 53z"/>
<path d="M16698 2108 l-58 -20 0 -54 0 -54 -55 0 -55 0 0 -60 0 -60 55 0 55 0
0 -165 c0 -148 2 -170 21 -206 26 -53 81 -78 166 -79 90 0 93 2 93 71 l0 59
-44 -6 c-36 -5 -47 -3 -65 15 -19 19 -21 32 -21 166 l0 145 65 0 65 0 0 60 0
60 -65 0 -65 0 0 75 c0 86 1 86 -92 53z"/>
<path d="M6634 1971 c-17 -10 -40 -31 -52 -46 l-22 -28 0 42 0 41 -70 0 -70 0
0 -280 0 -280 74 0 74 0 3 163 c4 141 7 167 25 202 24 47 68 66 121 55 l33 -8
0 79 0 79 -42 0 c-24 0 -56 -8 -74 -19z"/>
<path d="M10500 1974 c-19 -8 -45 -25 -57 -36 l-23 -21 0 31 0 32 -75 0 -75 0
0 -280 0 -280 80 0 80 0 0 168 c0 141 3 173 19 208 22 48 54 74 92 74 80 0 89
-25 89 -260 l0 -190 81 0 81 0 -4 213 c-3 203 -4 214 -28 262 -19 38 -35 55
-70 73 -53 26 -137 29 -190 6z"/>
<path d="M12580 1979 c-90 -26 -89 -24 -83 -92 3 -34 7 -63 8 -65 2 -2 18 6
36 17 87 53 204 48 234 -9 28 -54 23 -60 -58 -60 -124 0 -229 -38 -259 -93
-34 -63 -27 -160 15 -206 72 -79 232 -79 306 0 l21 23 0 -37 0 -37 69 0 68 0
-4 148 c-6 268 -8 286 -33 329 -35 63 -86 87 -195 90 -49 1 -106 -2 -125 -8z
m210 -324 c0 -29 -32 -94 -53 -108 -76 -48 -170 -12 -153 58 11 41 61 65 139
65 52 0 67 -3 67 -15z"/>
<path d="M13890 1979 c-13 -6 -39 -21 -57 -35 l-33 -25 0 30 0 31 -70 0 -70 0
0 -280 0 -280 75 0 75 0 0 150 c0 82 5 171 11 199 19 88 85 127 140 82 24 -19
24 -23 27 -225 l3 -206 75 0 74 0 0 150 c0 82 5 171 11 199 19 88 85 127 140
82 24 -19 24 -23 27 -225 l3 -206 75 0 74 0 0 214 c0 222 -6 262 -44 305 -62
70 -201 67 -277 -5 l-27 -26 -15 22 c-35 50 -148 76 -217 49z"/>
<path d="M15070 1979 c-93 -26 -91 -25 -84 -93 4 -33 8 -62 9 -64 2 -2 18 6
36 17 87 53 204 48 234 -9 28 -54 23 -60 -57 -60 -134 0 -231 -37 -262 -98
-20 -40 -27 -92 -17 -135 30 -130 228 -171 334 -70 l27 27 0 -37 0 -37 69 0
68 0 -4 123 c-9 317 -9 311 -33 354 -35 63 -86 87 -195 90 -49 1 -106 -2 -125
-8z m210 -324 c0 -28 -27 -79 -53 -104 -51 -47 -157 -25 -157 31 0 57 49 87
143 88 54 0 67 -3 67 -15z"/>
<path d="M16384 1971 c-17 -10 -40 -32 -52 -47 l-21 -29 -1 43 0 42 -70 0 -70
0 0 -280 0 -280 80 0 80 0 0 160 c0 168 8 208 46 241 26 22 59 29 94 19 l30
-9 0 80 0 79 -42 0 c-24 0 -56 -8 -74 -19z"/>
<path d="M5790 1767 c0 -209 1 -214 26 -264 19 -40 35 -57 68 -72 76 -37 186
-23 243 31 l23 21 0 -31 0 -32 75 0 75 0 0 280 0 280 -75 0 -75 0 0 -140 c0
-174 -12 -234 -55 -277 -41 -41 -82 -43 -122 -9 l-28 24 -3 201 -3 201 -75 0
-74 0 0 -213z"/>
<path d="M7591 1768 c1 -214 5 -247 40 -296 54 -74 209 -83 289 -16 l30 26 0
-31 0 -31 75 0 75 0 0 280 0 280 -75 0 -75 0 0 -140 c0 -174 -12 -234 -55
-277 -41 -41 -82 -43 -122 -9 l-28 24 -3 201 -3 201 -75 0 -74 0 1 -212z"/>
<path d="M9640 1778 c0 -112 5 -220 10 -240 38 -135 203 -171 338 -72 22 16
22 16 22 -15 l0 -31 70 0 70 0 0 280 0 280 -74 0 -74 0 -4 -172 c-2 -145 -6
-179 -22 -211 -44 -89 -151 -89 -176 1 -5 20 -10 115 -10 210 l0 172 -75 0
-75 0 0 -202z"/>
<path d="M13030 1768 c0 -231 7 -265 61 -315 70 -64 207 -57 282 14 l27 27 0
-37 0 -37 70 0 70 0 0 280 0 280 -74 0 -74 0 -4 -172 c-3 -139 -7 -179 -21
-205 -48 -89 -139 -98 -173 -18 -10 25 -14 82 -14 215 l0 180 -75 0 -75 0 0
-212z"/>
<path d="M8980 1715 l0 -65 145 0 145 0 0 65 0 65 -145 0 -145 0 0 -65z"/>
<path d="M5664 907 c-106 -27 -175 -85 -221 -182 -26 -55 -28 -70 -28 -175 0
-100 3 -122 24 -168 31 -68 113 -144 183 -169 71 -24 221 -24 301 0 l57 18 0
179 0 180 -120 0 -120 0 0 -35 0 -35 80 0 80 0 0 -119 c0 -136 5 -129 -101
-138 -137 -12 -246 51 -290 165 -41 109 -16 263 55 340 59 66 186 96 291 69
33 -8 67 -17 75 -19 11 -2 16 7 18 34 3 35 1 37 -35 47 -63 18 -193 22 -249 8z"/>
<path d="M14024 910 c-99 -21 -186 -86 -229 -170 -68 -135 -50 -332 40 -438
22 -25 63 -54 103 -74 63 -31 72 -33 172 -32 134 1 160 11 160 60 0 30 -3 35
-17 29 -43 -17 -134 -27 -184 -21 -70 9 -151 55 -184 104 -80 121 -64 310 33
405 78 76 184 93 330 51 20 -6 22 -3 22 30 0 30 -5 38 -25 46 -37 14 -174 20
-221 10z"/>
<path d="M9312 863 c-67 -159 -262 -643 -262 -653 0 -7 14 -10 37 -8 36 3 37
4 73 93 l36 90 170 3 170 2 38 -95 38 -95 39 0 c21 0 39 3 39 8 0 4 -61 163
-137 354 l-138 348 -41 0 c-40 0 -42 -2 -62 -47z m129 -231 l66 -167 -135 -3
c-74 -1 -136 -1 -138 1 -2 2 26 81 63 175 37 94 70 168 73 166 3 -3 35 -81 71
-172z"/>
<path d="M15543 848 c-20 -10 -23 -19 -23 -70 l0 -58 -50 0 c-49 0 -50 -1 -50
-30 0 -29 1 -30 50 -30 l50 0 0 -167 c1 -188 9 -246 37 -274 23 -23 78 -34
127 -25 32 6 36 10 36 39 0 32 0 32 -43 29 -75 -6 -77 0 -77 214 l0 184 55 0
c54 0 55 0 55 30 0 30 -1 30 -55 30 l-55 0 0 70 c0 76 -7 82 -57 58z"/>
<path d="M6235 716 c-47 -20 -102 -89 -119 -147 -29 -97 -16 -222 30 -291 47
-73 165 -104 284 -76 54 13 55 14 58 51 4 42 0 43 -54 21 -57 -24 -155 -16
-190 16 -30 28 -63 94 -64 128 0 22 0 22 170 22 l170 0 0 59 c0 104 -44 186
-117 217 -40 17 -128 17 -168 0z m153 -72 c25 -16 45 -57 55 -111 l7 -33 -135
0 c-150 0 -148 -1 -120 67 39 93 120 125 193 77z"/>
<path d="M6775 719 c-11 -6 -32 -25 -47 -42 l-28 -31 0 37 c0 36 -1 37 -35 37
l-35 0 0 -260 0 -260 40 0 40 0 0 168 c0 141 3 173 19 207 27 59 52 78 106 77
l45 -1 0 39 0 40 -42 0 c-24 0 -52 -5 -63 -11z"/>
<path d="M7104 716 c-17 -8 -40 -26 -52 -41 l-22 -28 0 37 c0 35 -1 36 -35 36
l-35 0 0 -260 0 -260 40 0 40 0 0 178 c0 165 2 180 23 217 44 79 134 95 181
32 19 -26 21 -43 24 -228 l3 -199 35 0 34 0 0 158 c0 176 8 218 51 266 35 40
69 51 115 36 58 -20 64 -43 64 -265 l0 -195 41 0 40 0 -3 208 c-3 186 -5 211
-23 241 -29 49 -67 73 -123 79 -65 6 -114 -11 -151 -54 l-30 -34 -16 31 c-28
54 -129 76 -201 45z"/>
<path d="M7858 714 c-45 -14 -48 -17 -48 -49 0 -38 8 -42 48 -21 43 22 108 29
147 16 41 -13 65 -52 65 -103 l0 -34 -89 -5 c-150 -9 -221 -59 -228 -162 -5
-69 19 -114 77 -143 70 -36 161 -26 220 23 l30 26 0 -31 c0 -29 2 -31 36 -31
l36 0 -4 208 c-4 242 -12 271 -82 303 -50 22 -141 24 -208 3z m212 -299 c0
-100 -49 -155 -137 -155 -44 0 -58 5 -78 25 -48 47 -23 123 47 149 49 17 77
23 131 25 l37 1 0 -45z"/>
<path d="M8422 714 c-18 -9 -42 -28 -52 -42 l-20 -25 0 37 c0 35 -1 36 -36 36
l-37 0 6 -82 c4 -46 7 -163 7 -260 l0 -178 35 0 35 0 0 172 c0 155 2 176 21
216 29 59 92 90 149 73 76 -23 90 -67 90 -293 l0 -168 36 0 35 0 -3 208 c-3
227 -9 249 -71 296 -38 28 -148 34 -195 10z"/>
<path d="M9864 711 c-46 -21 -90 -72 -110 -128 -18 -53 -18 -200 1 -254 17
-48 55 -93 98 -116 41 -21 152 -27 212 -11 48 12 50 15 53 51 2 20 1 37 -1 37
-3 0 -24 -7 -48 -16 -118 -41 -222 2 -244 102 -4 16 -9 37 -12 47 -4 16 9 17
171 17 l176 0 0 43 c-1 109 -44 196 -113 228 -53 24 -130 24 -183 0z m168 -78
c27 -25 48 -77 48 -115 0 -16 -13 -18 -135 -18 l-135 0 6 28 c30 122 141 176
216 105z"/>
<path d="M10379 691 l-39 -39 0 34 c0 33 -1 34 -41 34 -33 0 -40 -3 -35 -16 3
-9 6 -126 6 -260 l0 -244 34 0 34 0 4 173 c3 143 7 178 22 210 24 49 56 69
106 69 40 -1 40 -1 40 39 l0 39 -46 0 c-40 0 -51 -5 -85 -39z"/>
<path d="M10695 718 c-54 -19 -97 -59 -123 -117 -22 -46 -27 -71 -27 -142 0
-76 3 -92 30 -144 36 -71 95 -112 172 -122 107 -12 200 33 245 121 30 58 37
199 13 262 -23 60 -70 112 -120 135 -45 21 -141 24 -190 7z m149 -68 c52 -25
85 -73 95 -139 24 -155 -66 -276 -187 -250 -48 10 -79 35 -102 80 -48 93 -34
215 31 280 52 52 99 61 163 29z"/>
<path d="M11171 712 c-52 -26 -75 -63 -75 -122 0 -63 28 -95 131 -147 41 -21
81 -46 90 -55 26 -29 21 -77 -11 -105 -33 -28 -116 -32 -173 -8 -19 8 -37 15
-39 15 -2 0 -4 -18 -4 -39 0 -39 0 -39 50 -50 177 -38 300 42 270 175 -12 51
-43 80 -142 130 -68 34 -89 50 -94 70 -20 80 84 117 199 69 14 -6 17 -2 17 28
0 33 -3 37 -37 46 -58 17 -144 13 -182 -7z"/>
<path d="M11662 715 c-17 -8 -43 -26 -57 -41 l-25 -27 0 37 c0 35 -1 36 -35
36 l-35 0 0 -360 0 -360 35 0 35 0 0 138 0 137 23 -27 c63 -78 204 -76 279 3
46 48 68 118 68 214 0 127 -39 212 -114 246 -49 22 -128 24 -174 4z m138 -73
c45 -33 70 -97 70 -182 -1 -130 -49 -200 -141 -200 -88 0 -141 75 -142 200 0
160 111 255 213 182z"/>
<path d="M12138 715 c-45 -15 -48 -18 -48 -50 0 -40 -1 -40 44 -21 124 52 216
15 216 -87 l0 -34 -90 -5 c-153 -9 -221 -58 -227 -165 -6 -94 39 -148 133
-159 61 -8 124 9 164 42 l30 26 0 -31 c0 -29 2 -31 36 -31 l36 0 -3 208 c-5
227 -10 250 -72 296 -36 27 -151 32 -219 11z m212 -300 c0 -100 -49 -155 -137
-155 -44 0 -58 5 -78 25 -27 26 -33 72 -15 106 20 36 103 65 193 68 l37 1 0
-45z"/>
<path d="M12689 717 c-102 -38 -151 -110 -157 -231 -5 -96 7 -148 48 -204 48
-67 97 -87 212 -87 109 0 124 7 113 55 -5 24 -11 30 -23 25 -79 -30 -164 -19
-212 28 -44 42 -62 89 -62 157 0 163 125 248 274 186 12 -6 18 0 23 24 4 18 3
36 -3 42 -17 17 -172 20 -213 5z"/>
<path d="M13091 708 c-88 -43 -126 -132 -119 -275 9 -176 99 -257 268 -240 91
10 110 20 110 62 0 19 -2 35 -4 35 -2 0 -23 -7 -47 -16 -128 -45 -227 5 -249
127 l-7 39 173 0 174 0 0 48 c0 61 -20 131 -50 172 -48 67 -165 90 -249 48z
m145 -54 c36 -17 74 -82 74 -127 l0 -27 -130 0 c-122 0 -130 1 -130 19 0 52
43 114 95 137 39 17 50 17 91 -2z"/>
<path d="M14521 708 c-47 -23 -94 -85 -111 -148 -15 -53 -12 -160 6 -221 21
-72 73 -122 144 -139 56 -13 142 -9 198 11 28 9 32 16 32 45 0 39 -1 39 -55
19 -60 -21 -141 -19 -181 5 -36 23 -74 91 -74 133 l0 27 170 0 170 0 0 53 c0
105 -38 178 -110 215 -58 29 -130 29 -189 0z m144 -52 c39 -16 75 -77 75 -126
l0 -30 -130 0 c-124 0 -130 1 -130 20 0 26 32 90 57 112 19 18 59 36 81 37 7
1 28 -5 47 -13z"/>
<path d="M15080 719 c-14 -5 -37 -22 -52 -36 l-28 -27 0 32 c0 30 -2 32 -35
32 l-35 0 0 -260 0 -260 35 0 35 0 0 139 c0 164 11 233 45 277 53 69 161 66
197 -6 15 -30 18 -64 18 -222 l0 -188 41 0 41 0 -4 203 c-4 225 -11 257 -72
299 -35 26 -143 35 -186 17z"/>
<path d="M15904 711 c-46 -21 -90 -72 -110 -128 -18 -53 -18 -200 1 -254 17
-48 55 -93 98 -116 41 -21 152 -27 212 -11 48 12 50 15 53 51 2 20 1 37 -1 37
-3 0 -24 -7 -48 -16 -61 -21 -132 -20 -171 3 -36 21 -72 79 -81 131 l-6 32
174 0 175 0 0 43 c-1 109 -44 196 -113 228 -53 24 -130 24 -183 0z m168 -78
c27 -25 48 -77 48 -115 0 -16 -13 -18 -134 -18 l-134 0 7 33 c10 42 24 67 53
94 53 49 112 52 160 6z"/>
<path d="M16419 691 l-39 -39 0 34 c0 33 -1 34 -41 34 -33 0 -40 -3 -35 -16 3
-9 6 -126 6 -260 l0 -244 34 0 34 0 4 173 c3 154 6 176 26 214 26 50 51 66
104 65 38 -1 38 0 38 39 l0 39 -46 0 c-40 0 -51 -5 -85 -39z"/>
</g>
</svg>
