<?xml version="1.0" standalone="no"?>
<!DOCTYPE svg PUBLIC "-//W3C//DTD SVG 1.0//EN" "http://www.w3.org/TR/2001/REC-SVG-20010904/DTD/svg10.dtd">
<svg xmlns="http://www.w3.org/2000/svg" xmlns:xlink="http://www.w3.org/1999/xlink" id="body_1" width="400" height="120">

<g transform="matrix(0.5 0 0 0.4979253 0 0)">
	<g transform="matrix(0.04728131 0 0 -0.0472549 0 241)">
	</g>
    <path transform="matrix(0.04728131 0 0 -0.0472549 0 241)"  d="M2630 4495L2025 3890L1505 3890L985 3890L492 3397C 222 3127 0 2902 0 2897C 0 2893 275 2890 610 2890L610 2890L1220 2890L1220 2278L1220 1665L1833 2278L2445 2890L2960 2890L3475 2890L3968 3383C 4238 3653 4460 3878 4460 3883C 4460 3887 4188 3890 3855 3890L3855 3890L3250 3890L3250 4495C 3250 4828 3247 5100 3242 5100C 3238 5100 2963 4828 2630 4495zM2990 4185L2990 3890L2693 3890L2395 3890L2690 4185C 2852 4347 2986 4480 2987 4480C 2989 4480 2990 4347 2990 4185zM1525 3390L1285 3150L950 3150L615 3150L855 3390L1095 3630L1430 3630L1765 3630L1525 3390zM2575 3390L2335 3150L1995 3150L1655 3150L1895 3390L2135 3630L2475 3630L2815 3630L2575 3390zM3605 3390L3365 3150L3035 3150L2705 3150L2945 3390L3185 3630L3515 3630L3845 3630L3605 3390zM2070 2887C 2070 2886 1935 2750 1770 2585L1770 2585L1470 2285L1470 2588L1470 2890L1770 2890C 1935 2890 2070 2889 2070 2887z" stroke="none" fill="#2A2B2B" fill-rule="nonzero" />
	<g transform="matrix(0.04728131 0 0 -0.0472549 0 241)">
	</g>
    <path transform="matrix(0.04728131 0 0 -0.0472549 0 241)"  d="M8720 3050L8720 2650L8800 2650L8880 2650L8880 2818C 8880 2962 8883 2991 8900 3028C 8933 3101 9016 3119 9060 3063C 9078 3039 9080 3022 9080 2844L9080 2844L9080 2650L9161 2650L9242 2650L9238 2863C 9235 3061 9233 3078 9212 3122C 9199 3149 9174 3178 9156 3190C 9087 3232 8980 3225 8913 3174L8913 3174L8880 3149L8880 3299L8880 3450L8800 3450L8720 3450L8720 3050z" stroke="none" fill="#2A2B2B" fill-rule="nonzero" />
	<g transform="matrix(0.04728131 0 0 -0.0472549 0 241)">
	</g>
    <path transform="matrix(0.04728131 0 0 -0.0472549 0 241)"  d="M5440 3026L5440 2650L5589 2650C 5758 2650 5818 2659 5902 2697C 6029 2754 6087 2869 6078 3051C 6074 3136 6069 3158 6041 3215C 6002 3294 5945 3341 5851 3372C 5797 3389 5752 3394 5613 3398L5613 3398L5440 3402L5440 3026zM5751 3258C 5842 3231 5913 3132 5914 3031C 5914 2958 5896 2907 5851 2857C 5806 2807 5749 2781 5665 2773L5665 2773L5600 2767L5600 3019L5600 3270L5656 3270C 5687 3270 5730 3265 5751 3258z" stroke="none" fill="#2A2B2B" fill-rule="nonzero" />
	<g transform="matrix(0.04728131 0 0 -0.0472549 0 241)">
	</g>
    <path transform="matrix(0.04728131 0 0 -0.0472549 0 241)"  d="M10690 3335L10690 3270L10850 3268L11009 3265L10840 3020L10670 2775L10670 2713L10670 2650L10935 2650L11200 2650L11200 2710L11200 2770L11025 2770C 10929 2770 10850 2773 10850 2776C 10850 2780 10927 2892 11020 3026L11020 3026L11190 3269L11190 3334L11190 3400L10940 3400L10690 3400L10690 3335z" stroke="none" fill="#2A2B2B" fill-rule="nonzero" />
	<g transform="matrix(0.04728131 0 0 -0.0472549 0 241)">
	</g>
    <path transform="matrix(0.04728131 0 0 -0.0472549 0 241)"  d="M7500 3336L7435 3313L7432 3257L7429 3200L7380 3200L7330 3200L7330 3145L7330 3090L7380 3090L7430 3090L7430 2943C 7430 2779 7440 2728 7477 2688C 7515 2648 7548 2639 7636 2642L7636 2642L7715 2645L7718 2706L7721 2767L7673 2763C 7647 2761 7619 2763 7612 2768C 7590 2783 7580 2847 7580 2973L7580 2973L7580 3090L7645 3090L7710 3090L7710 3145L7710 3200L7645 3200L7580 3200L7580 3280C 7580 3324 7577 3360 7573 3359C 7568 3359 7536 3348 7500 3336z" stroke="none" fill="#2A2B2B" fill-rule="nonzero" />
	<g transform="matrix(0.04728131 0 0 -0.0472549 0 241)">
	</g>
    <path transform="matrix(0.04728131 0 0 -0.0472549 0 241)"  d="M12578 3336L12510 3315L12510 3258L12510 3200L12460 3200L12410 3200L12410 3145L12410 3090L12459 3090L12508 3090L12512 2918C 12515 2759 12517 2742 12538 2709C 12571 2655 12613 2639 12712 2642L12712 2642L12795 2645L12795 2705L12795 2765L12742 2762C 12690 2758 12690 2759 12675 2794C 12664 2819 12660 2867 12660 2960L12660 2960L12660 3090L12725 3090L12790 3090L12790 3145L12790 3200L12725 3200L12660 3200L12660 3280C 12660 3324 12657 3360 12653 3359C 12648 3358 12615 3348 12578 3336z" stroke="none" fill="#2A2B2B" fill-rule="nonzero" />
	<g transform="matrix(0.04728131 0 0 -0.0472549 0 241)">
	</g>
    <path transform="matrix(0.04728131 0 0 -0.0472549 0 241)"  d="M6310 3200C 6198 3162 6144 3060 6152 2901C 6159 2770 6208 2695 6313 2655C 6374 2632 6548 2637 6598 2663C 6629 2680 6630 2683 6630 2740C 6630 2773 6627 2800 6623 2800C 6618 2800 6588 2789 6555 2775C 6433 2725 6327 2755 6300 2849L6300 2849L6291 2880L6481 2880L6670 2880L6670 2920C 6670 2941 6665 2983 6659 3012C 6636 3121 6588 3178 6498 3205C 6430 3225 6377 3224 6310 3200zM6470 3087C 6495 3068 6520 3027 6520 3008C 6520 2992 6509 2990 6410 2990C 6305 2990 6300 2991 6300 3011C 6300 3023 6315 3047 6334 3066C 6362 3094 6375 3100 6412 3100C 6435 3100 6462 3094 6470 3087z" stroke="none" fill="#2A2B2B" fill-rule="nonzero" />
	<g transform="matrix(0.04728131 0 0 -0.0472549 0 241)">
	</g>
    <path transform="matrix(0.04728131 0 0 -0.0472549 0 241)"  d="M7923 3210C 7833 3189 7780 3127 7780 3043C 7780 2952 7816 2915 7940 2875C 7970 2865 8001 2853 8008 2847C 8025 2834 8023 2785 8005 2770C 7978 2748 7909 2747 7848 2767L7848 2767L7790 2787L7790 2755C 7790 2737 7787 2709 7784 2692C 7778 2663 7780 2661 7816 2651C 7838 2645 7896 2640 7945 2640C 8047 2640 8096 2657 8145 2709C 8169 2735 8175 2750 8178 2804C 8185 2905 8151 2949 8040 2985C 7942 3016 7917 3046 7958 3083C 7980 3103 8060 3106 8109 3089C 8127 3083 8142 3079 8144 3081C 8146 3083 8150 3110 8153 3142L8153 3142L8158 3198L8096 3209C 8026 3221 7971 3222 7923 3210z" stroke="none" fill="#2A2B2B" fill-rule="nonzero" />
	<g transform="matrix(0.04728131 0 0 -0.0472549 0 241)">
	</g>
    <path transform="matrix(0.04728131 0 0 -0.0472549 0 241)"  d="M8402 3202C 8336 3178 8288 3133 8258 3066C 8226 2994 8226 2857 8258 2785C 8306 2679 8376 2640 8515 2640C 8651 2640 8650 2640 8650 2717C 8650 2780 8649 2782 8628 2775C 8615 2771 8578 2766 8544 2763C 8487 2758 8481 2760 8448 2788C 8389 2841 8373 2939 8411 3018C 8428 3053 8443 3067 8478 3083C 8518 3100 8530 3101 8573 3091C 8601 3085 8625 3082 8628 3085C 8631 3088 8635 3114 8638 3144C 8643 3207 8641 3209 8530 3216C 8472 3220 8443 3216 8402 3202z" stroke="none" fill="#2A2B2B" fill-rule="nonzero" />
	<g transform="matrix(0.04728131 0 0 -0.0472549 0 241)">
	</g>
    <path transform="matrix(0.04728131 0 0 -0.0472549 0 241)"  d="M9515 3211C 9435 3190 9373 3132 9345 3051C 9325 2992 9325 2857 9346 2797C 9365 2740 9439 2669 9498 2652C 9557 2634 9706 2638 9760 2658L9760 2658L9805 2675L9808 2739C 9811 2811 9820 2807 9720 2771C 9601 2727 9503 2762 9475 2858L9475 2858L9469 2880L9661 2880L9853 2880L9846 2949C 9835 3077 9790 3158 9714 3192C 9665 3213 9561 3223 9515 3211zM9659 3073C 9676 3057 9692 3033 9696 3018L9696 3018L9702 2990L9587 2990L9471 2990L9481 3020C 9509 3097 9602 3125 9659 3073z" stroke="none" fill="#2A2B2B" fill-rule="nonzero" />
	<g transform="matrix(0.04728131 0 0 -0.0472549 0 241)">
	</g>
    <path transform="matrix(0.04728131 0 0 -0.0472549 0 241)"  d="M10039 3207C 9941 3179 9891 3108 9904 3015C 9915 2947 9947 2916 10039 2885C 10151 2848 10177 2813 10123 2770C 10099 2751 10086 2749 10039 2753C 10008 2756 9969 2765 9952 2774C 9921 2790 9920 2790 9915 2767C 9911 2754 9910 2724 9912 2700C 9915 2657 9916 2655 9955 2647C 10021 2633 10170 2643 10213 2664C 10298 2706 10333 2807 10291 2892C 10268 2940 10231 2966 10142 2995C 10091 3011 10060 3032 10060 3051C 10060 3056 10069 3069 10080 3080C 10102 3102 10170 3107 10229 3090C 10248 3085 10266 3083 10269 3085C 10271 3088 10275 3114 10278 3144C 10282 3193 10280 3198 10259 3203C 10206 3218 10084 3220 10039 3207z" stroke="none" fill="#2A2B2B" fill-rule="nonzero" />
	<g transform="matrix(0.04728131 0 0 -0.0472549 0 241)">
	</g>
    <path transform="matrix(0.04728131 0 0 -0.0472549 0 241)"  d="M11425 3211C 11286 3174 11211 3032 11240 2859C 11258 2754 11311 2686 11401 2655C 11459 2634 11612 2636 11670 2658L11670 2658L11715 2675L11718 2739C 11721 2811 11730 2807 11630 2771C 11511 2727 11413 2762 11385 2858L11385 2858L11379 2880L11571 2880L11763 2880L11756 2944C 11742 3079 11704 3152 11627 3189C 11579 3212 11473 3224 11425 3211zM11569 3073C 11586 3057 11602 3033 11606 3018L11606 3018L11612 2990L11496 2990C 11432 2990 11380 2992 11380 2995C 11380 3015 11423 3078 11442 3087C 11485 3108 11537 3102 11569 3073z" stroke="none" fill="#2A2B2B" fill-rule="nonzero" />
	<g transform="matrix(0.04728131 0 0 -0.0472549 0 241)">
	</g>
    <path transform="matrix(0.04728131 0 0 -0.0472549 0 241)"  d="M12081 3205C 12057 3198 12027 3181 12014 3169L12014 3169L11990 3147L11990 3173C 11990 3200 11990 3200 11915 3200L11915 3200L11840 3200L11840 2925L11840 2650L11914 2650L11988 2650L11992 2818C 11996 3013 12008 3052 12073 3083C 12122 3107 12159 3096 12182 3049C 12197 3020 12200 2986 12200 2833L12200 2833L12200 2650L12275 2650L12350 2650L12350 2863C 12350 3047 12347 3080 12331 3115C 12309 3164 12283 3188 12233 3206C 12185 3223 12137 3222 12081 3205z" stroke="none" fill="#2A2B2B" fill-rule="nonzero" />
	<g transform="matrix(0.04728131 0 0 -0.0472549 0 241)">
	</g>
    <path transform="matrix(0.04728131 0 0 -0.0472549 0 241)"  d="M13095 3206C 13064 3192 13031 3160 13012 3125C 13002 3108 13001 3112 13000 3153L13000 3153L13000 3200L12935 3200L12870 3200L12870 2925L12870 2650L12945 2650L13020 2650L13020 2791C 13020 2958 13031 3011 13073 3046C 13100 3068 13111 3071 13152 3068L13152 3068L13201 3063L13198 3139L13195 3215L13160 3217C 13141 3219 13112 3214 13095 3206z" stroke="none" fill="#2A2B2B" fill-rule="nonzero" />
	<g transform="matrix(0.04728131 0 0 -0.0472549 0 241)">
	</g>
    <path transform="matrix(0.04728131 0 0 -0.0472549 0 241)"  d="M14125 3208C 14109 3202 14080 3187 14063 3173L14063 3173L14030 3149L14030 3174C 14030 3199 14028 3200 13960 3200L13960 3200L13890 3200L13890 2925L13890 2650L13965 2650L14040 2650L14040 2813C 14040 2997 14048 3038 14091 3074C 14129 3106 14151 3107 14187 3076L14187 3076L14215 3052L14218 2851L14222 2650L14296 2650L14370 2650L14370 2813C 14370 2997 14378 3038 14421 3074C 14459 3106 14481 3107 14517 3076L14517 3076L14545 3052L14548 2851L14552 2650L14626 2650L14701 2650L14698 2873C 14695 3075 14693 3099 14674 3135C 14649 3182 14610 3208 14549 3216C 14491 3224 14428 3206 14386 3169L14386 3169L14352 3140L14323 3169C 14277 3215 14192 3231 14125 3208z" stroke="none" fill="#2A2B2B" fill-rule="nonzero" />
	<g transform="matrix(0.04728131 0 0 -0.0472549 0 241)">
	</g>
    <path transform="matrix(0.04728131 0 0 -0.0472549 0 241)"  d="M6752 2983C 6755 2775 6756 2763 6779 2724C 6815 2660 6865 2637 6955 2642C 7019 2645 7035 2650 7074 2677L7074 2677L7120 2710L7120 2680L7120 2650L7190 2650L7260 2650L7260 2925L7260 3200L7185 3200L7110 3200L7110 3048C 7110 2876 7101 2829 7059 2788C 7035 2764 7024 2759 6989 2762C 6957 2764 6942 2772 6926 2793C 6907 2819 6905 2837 6902 3011L6902 3011L6898 3200L6824 3200L6749 3200L6752 2983z" stroke="none" fill="#2A2B2B" fill-rule="nonzero" />
	<g transform="matrix(0.04728131 0 0 -0.0472549 0 241)">
	</g>
    <path transform="matrix(0.04728131 0 0 -0.0472549 0 241)"  d="M13260 2992C 13260 2784 13260 2783 13288 2730C 13325 2656 13361 2638 13462 2642C 13529 2645 13544 2649 13584 2677L13584 2677L13630 2710L13630 2680L13630 2650L13700 2650L13770 2650L13770 2925L13770 3200L13696 3200L13622 3200L13618 3028C 13614 2841 13606 2807 13556 2774C 13518 2750 13461 2759 13436 2793C 13417 2819 13415 2837 13412 3011L13412 3011L13409 3200L13334 3200L13260 3200L13260 2992z" stroke="none" fill="#2A2B2B" fill-rule="nonzero" />
	<g transform="matrix(0.04728131 0 0 -0.0472549 0 241)">
	</g>
    <path transform="matrix(0.04728131 0 0 -0.0472549 0 241)"  d="M5545 2226C 5478 2196 5450 2142 5450 2044L5450 2044L5450 1980L5395 1980L5340 1980L5340 1920L5340 1860L5395 1860L5450 1860L5450 1640L5450 1420L5525 1420L5600 1420L5600 1640L5600 1860L5660 1860L5720 1860L5720 1920L5720 1980L5660 1980L5600 1980L5600 2029C 5600 2062 5606 2085 5619 2101C 5636 2123 5641 2124 5678 2114C 5718 2103 5718 2104 5724 2133C 5737 2196 5731 2227 5708 2234C 5668 2244 5576 2240 5545 2226z" stroke="none" fill="#2A2B2B" fill-rule="nonzero" />
	<g transform="matrix(0.04728131 0 0 -0.0472549 0 241)">
	</g>
    <path transform="matrix(0.04728131 0 0 -0.0472549 0 241)"  d="M8361 2218C 8304 2189 8279 2141 8272 2049L8272 2049L8267 1980L8219 1980L8170 1980L8170 1920L8170 1860L8220 1860L8270 1860L8270 1640L8270 1420L8350 1420L8430 1420L8430 1640L8430 1860L8490 1860L8550 1860L8550 1920L8550 1980L8490 1980L8430 1980L8430 2033C 8430 2112 8462 2135 8531 2106C 8545 2100 8549 2108 8555 2160C 8559 2194 8559 2224 8555 2228C 8552 2232 8516 2236 8477 2238C 8417 2241 8397 2237 8361 2218z" stroke="none" fill="#2A2B2B" fill-rule="nonzero" />
	<g transform="matrix(0.04728131 0 0 -0.0472549 0 241)">
	</g>
    <path transform="matrix(0.04728131 0 0 -0.0472549 0 241)"  d="M14722 2219C 14667 2191 14641 2141 14633 2049L14633 2049L14627 1980L14579 1980L14530 1980L14530 1920L14530 1860L14580 1860L14630 1860L14630 1640L14630 1420L14710 1420L14790 1420L14790 1640L14790 1860L14850 1860L14910 1860L14910 1920L14910 1980L14850 1980L14790 1980L14790 2033C 14790 2112 14822 2135 14891 2106C 14904 2100 14909 2107 14913 2137C 14925 2207 14922 2227 14898 2234C 14848 2247 14765 2240 14722 2219z" stroke="none" fill="#2A2B2B" fill-rule="nonzero" />
	<g transform="matrix(0.04728131 0 0 -0.0472549 0 241)">
	</g>
    <path transform="matrix(0.04728131 0 0 -0.0472549 0 241)"  d="M11270 2080L11270 1930L11229 1957C 11196 1978 11172 1985 11120 1988C 10962 1997 10879 1900 10877 1705C 10875 1510 10955 1410 11113 1410C 11163 1410 11222 1430 11252 1457C 11269 1472 11270 1471 11270 1447C 11270 1420 11270 1420 11345 1420L11345 1420L11420 1420L11420 1825L11420 2230L11345 2230L11270 2230L11270 2080zM11209 1844C 11287 1779 11284 1614 11204 1551C 11104 1473 10999 1618 11044 1773C 11071 1867 11144 1899 11209 1844z" stroke="none" fill="#2A2B2B" fill-rule="nonzero" />
	<g transform="matrix(0.04728131 0 0 -0.0472549 0 241)">
	</g>
    <path transform="matrix(0.04728131 0 0 -0.0472549 0 241)"  d="M15540 1825L15540 1420L15615 1420L15690 1420L15690 1585C 15690 1795 15709 1851 15786 1866C 15877 1883 15893 1848 15898 1608L15898 1608L15902 1420L15977 1420L16052 1420L16048 1638C 16045 1839 16043 1858 16023 1897C 15991 1956 15948 1983 15879 1988C 15813 1993 15762 1978 15720 1943L15720 1943L15690 1918L15690 2074L15690 2230L15615 2230L15540 2230L15540 1825z" stroke="none" fill="#2A2B2B" fill-rule="nonzero" />
	<g transform="matrix(0.04728131 0 0 -0.0472549 0 241)">
	</g>
    <path transform="matrix(0.04728131 0 0 -0.0472549 0 241)"  d="M5870 2135L5870 2070L5935 2070L6000 2070L6000 2135L6000 2200L5935 2200L5870 2200L5870 2135z" stroke="none" fill="#2A2B2B" fill-rule="nonzero" />
	<g transform="matrix(0.04728131 0 0 -0.0472549 0 241)">
	</g>
    <path transform="matrix(0.04728131 0 0 -0.0472549 0 241)"  d="M6090 2135L6090 2070L6155 2070L6220 2070L6220 2135L6220 2200L6155 2200L6090 2200L6090 2135z" stroke="none" fill="#2A2B2B" fill-rule="nonzero" />
	<g transform="matrix(0.04728131 0 0 -0.0472549 0 241)">
	</g>
    <path transform="matrix(0.04728131 0 0 -0.0472549 0 241)"  d="M2440 1796L2440 1420L2583 1420C 2815 1420 2911 1448 2995 1542C 3053 1607 3074 1674 3074 1795C 3074 1927 3053 1989 2982 2060C 2896 2145 2843 2161 2618 2167L2618 2167L2440 2172L2440 1796zM2776 2016C 2860 1977 2910 1894 2910 1793C 2910 1730 2885 1662 2847 1621C 2809 1580 2732 1550 2663 1550L2663 1550L2600 1550L2600 1795L2600 2040L2663 2040C 2707 2040 2740 2033 2776 2016z" stroke="none" fill="#2A2B2B" fill-rule="nonzero" />
	<g transform="matrix(0.04728131 0 0 -0.0472549 0 241)">
	</g>
    <path transform="matrix(0.04728131 0 0 -0.0472549 0 241)"  d="M3220 1795L3220 1420L3445 1420L3670 1420L3670 1485L3670 1550L3525 1550L3380 1550L3380 1860L3380 2170L3300 2170L3220 2170L3220 1795z" stroke="none" fill="#2A2B2B" fill-rule="nonzero" />
	<g transform="matrix(0.04728131 0 0 -0.0472549 0 241)">
	</g>
    <path transform="matrix(0.04728131 0 0 -0.0472549 0 241)"  d="M3790 1796L3790 1420L3870 1420L3950 1420L3950 1576L3950 1733L3995 1727C 4020 1725 4049 1715 4059 1706C 4069 1697 4101 1629 4129 1555L4129 1555L4182 1420L4271 1420L4360 1420L4341 1468C 4270 1647 4234 1729 4213 1757C 4186 1794 4185 1800 4204 1800C 4227 1800 4282 1851 4296 1887C 4317 1935 4313 2017 4289 2066C 4273 2101 4257 2115 4212 2137C 4157 2164 4148 2165 3973 2169L3973 2169L3790 2172L3790 1796zM4107 2021C 4163 1986 4160 1906 4101 1875C 4084 1867 4043 1857 4010 1853L4010 1853L3950 1847L3950 1944L3950 2040L4013 2040C 4057 2040 4084 2034 4107 2021z" stroke="none" fill="#2A2B2B" fill-rule="nonzero" />
	<g transform="matrix(0.04728131 0 0 -0.0472549 0 241)">
	</g>
    <path transform="matrix(0.04728131 0 0 -0.0472549 0 241)"  d="M7100 1795L7100 1420L7325 1420L7550 1420L7550 1485L7550 1550L7405 1550L7260 1550L7260 1860L7260 2170L7180 2170L7100 2170L7100 1795z" stroke="none" fill="#2A2B2B" fill-rule="nonzero" />
	<g transform="matrix(0.04728131 0 0 -0.0472549 0 241)">
	</g>
    <path transform="matrix(0.04728131 0 0 -0.0472549 0 241)"  d="M11840 1796L11840 1420L11915 1420L11990 1420L11990 1575L11990 1730L12025 1730C 12101 1730 12113 1715 12185 1523L12185 1523L12223 1420L12312 1420C 12360 1420 12400 1422 12400 1425C 12400 1440 12267 1749 12252 1770L12252 1770L12233 1795L12269 1815C 12288 1826 12315 1851 12328 1870C 12349 1901 12351 1914 12348 1982C 12344 2074 12327 2103 12254 2140C 12208 2163 12194 2165 12023 2168L12023 2168L11840 2172L11840 1796zM12150 2021C 12203 1983 12202 1913 12147 1880C 12124 1866 12097 1860 12053 1860L12053 1860L11990 1860L11990 1956L11990 2053L12058 2046C 12098 2042 12135 2032 12150 2021z" stroke="none" fill="#2A2B2B" fill-rule="nonzero" />
	<g transform="matrix(0.04728131 0 0 -0.0472549 0 241)">
	</g>
    <path transform="matrix(0.04728131 0 0 -0.0472549 0 241)"  d="M8728 2108L8670 2088L8670 2034L8670 1980L8615 1980L8560 1980L8560 1920L8560 1860L8615 1860L8670 1860L8670 1695C 8670 1547 8672 1525 8691 1489C 8717 1436 8772 1411 8857 1410C 8947 1410 8950 1412 8950 1481L8950 1481L8950 1540L8906 1534C 8870 1529 8859 1531 8841 1549C 8822 1568 8820 1581 8820 1715L8820 1715L8820 1860L8880 1860L8940 1860L8940 1920L8940 1980L8880 1980L8820 1980L8820 2055C 8820 2141 8821 2141 8728 2108z" stroke="none" fill="#2A2B2B" fill-rule="nonzero" />
	<g transform="matrix(0.04728131 0 0 -0.0472549 0 241)">
	</g>
    <path transform="matrix(0.04728131 0 0 -0.0472549 0 241)"  d="M16698 2108L16640 2088L16640 2034L16640 1980L16585 1980L16530 1980L16530 1920L16530 1860L16585 1860L16640 1860L16640 1695C 16640 1547 16642 1525 16661 1489C 16687 1436 16742 1411 16827 1410C 16917 1410 16920 1412 16920 1481L16920 1481L16920 1540L16876 1534C 16840 1529 16829 1531 16811 1549C 16792 1568 16790 1581 16790 1715L16790 1715L16790 1860L16855 1860L16920 1860L16920 1920L16920 1980L16855 1980L16790 1980L16790 2055C 16790 2141 16791 2141 16698 2108z" stroke="none" fill="#2A2B2B" fill-rule="nonzero" />
	<g transform="matrix(0.04728131 0 0 -0.0472549 0 241)">
	</g>
    <path transform="matrix(0.04728131 0 0 -0.0472549 0 241)"  d="M6634 1971C 6617 1961 6594 1940 6582 1925L6582 1925L6560 1897L6560 1939L6560 1980L6490 1980L6420 1980L6420 1700L6420 1420L6494 1420L6568 1420L6571 1583C 6575 1724 6578 1750 6596 1785C 6620 1832 6664 1851 6717 1840L6717 1840L6750 1832L6750 1911L6750 1990L6708 1990C 6684 1990 6652 1982 6634 1971z" stroke="none" fill="#2A2B2B" fill-rule="nonzero" />
	<g transform="matrix(0.04728131 0 0 -0.0472549 0 241)">
	</g>
    <path transform="matrix(0.04728131 0 0 -0.0472549 0 241)"  d="M10500 1974C 10481 1966 10455 1949 10443 1938L10443 1938L10420 1917L10420 1948L10420 1980L10345 1980L10270 1980L10270 1700L10270 1420L10350 1420L10430 1420L10430 1588C 10430 1729 10433 1761 10449 1796C 10471 1844 10503 1870 10541 1870C 10621 1870 10630 1845 10630 1610L10630 1610L10630 1420L10711 1420L10792 1420L10788 1633C 10785 1836 10784 1847 10760 1895C 10741 1933 10725 1950 10690 1968C 10637 1994 10553 1997 10500 1974z" stroke="none" fill="#2A2B2B" fill-rule="nonzero" />
	<g transform="matrix(0.04728131 0 0 -0.0472549 0 241)">
	</g>
    <path transform="matrix(0.04728131 0 0 -0.0472549 0 241)"  d="M12580 1979C 12490 1953 12491 1955 12497 1887C 12500 1853 12504 1824 12505 1822C 12507 1820 12523 1828 12541 1839C 12628 1892 12745 1887 12775 1830C 12803 1776 12798 1770 12717 1770C 12593 1770 12488 1732 12458 1677C 12424 1614 12431 1517 12473 1471C 12545 1392 12705 1392 12779 1471L12779 1471L12800 1494L12800 1457L12800 1420L12869 1420L12937 1420L12933 1568C 12927 1836 12925 1854 12900 1897C 12865 1960 12814 1984 12705 1987C 12656 1988 12599 1985 12580 1979zM12790 1655C 12790 1626 12758 1561 12737 1547C 12661 1499 12567 1535 12584 1605C 12595 1646 12645 1670 12723 1670C 12775 1670 12790 1667 12790 1655z" stroke="none" fill="#2A2B2B" fill-rule="nonzero" />
	<g transform="matrix(0.04728131 0 0 -0.0472549 0 241)">
	</g>
    <path transform="matrix(0.04728131 0 0 -0.0472549 0 241)"  d="M13890 1979C 13877 1973 13851 1958 13833 1944L13833 1944L13800 1919L13800 1949L13800 1980L13730 1980L13660 1980L13660 1700L13660 1420L13735 1420L13810 1420L13810 1570C 13810 1652 13815 1741 13821 1769C 13840 1857 13906 1896 13961 1851C 13985 1832 13985 1828 13988 1626L13988 1626L13991 1420L14066 1420L14140 1420L14140 1570C 14140 1652 14145 1741 14151 1769C 14170 1857 14236 1896 14291 1851C 14315 1832 14315 1828 14318 1626L14318 1626L14321 1420L14396 1420L14470 1420L14470 1634C 14470 1856 14464 1896 14426 1939C 14364 2009 14225 2006 14149 1934L14149 1934L14122 1908L14107 1930C 14072 1980 13959 2006 13890 1979z" stroke="none" fill="#2A2B2B" fill-rule="nonzero" />
	<g transform="matrix(0.04728131 0 0 -0.0472549 0 241)">
	</g>
    <path transform="matrix(0.04728131 0 0 -0.0472549 0 241)"  d="M15070 1979C 14977 1953 14979 1954 14986 1886C 14990 1853 14994 1824 14995 1822C 14997 1820 15013 1828 15031 1839C 15118 1892 15235 1887 15265 1830C 15293 1776 15288 1770 15208 1770C 15074 1770 14977 1733 14946 1672C 14926 1632 14919 1580 14929 1537C 14959 1407 15157 1366 15263 1467L15263 1467L15290 1494L15290 1457L15290 1420L15359 1420L15427 1420L15423 1543C 15414 1860 15414 1854 15390 1897C 15355 1960 15304 1984 15195 1987C 15146 1988 15089 1985 15070 1979zM15280 1655C 15280 1627 15253 1576 15227 1551C 15176 1504 15070 1526 15070 1582C 15070 1639 15119 1669 15213 1670C 15267 1670 15280 1667 15280 1655z" stroke="none" fill="#2A2B2B" fill-rule="nonzero" />
	<g transform="matrix(0.04728131 0 0 -0.0472549 0 241)">
	</g>
    <path transform="matrix(0.04728131 0 0 -0.0472549 0 241)"  d="M16384 1971C 16367 1961 16344 1939 16332 1924L16332 1924L16311 1895L16310 1938L16310 1980L16240 1980L16170 1980L16170 1700L16170 1420L16250 1420L16330 1420L16330 1580C 16330 1748 16338 1788 16376 1821C 16402 1843 16435 1850 16470 1840L16470 1840L16500 1831L16500 1911L16500 1990L16458 1990C 16434 1990 16402 1982 16384 1971z" stroke="none" fill="#2A2B2B" fill-rule="nonzero" />
	<g transform="matrix(0.04728131 0 0 -0.0472549 0 241)">
	</g>
    <path transform="matrix(0.04728131 0 0 -0.0472549 0 241)"  d="M5790 1767C 5790 1558 5791 1553 5816 1503C 5835 1463 5851 1446 5884 1431C 5960 1394 6070 1408 6127 1462L6127 1462L6150 1483L6150 1452L6150 1420L6225 1420L6300 1420L6300 1700L6300 1980L6225 1980L6150 1980L6150 1840C 6150 1666 6138 1606 6095 1563C 6054 1522 6013 1520 5973 1554L5973 1554L5945 1578L5942 1779L5939 1980L5864 1980L5790 1980L5790 1767z" stroke="none" fill="#2A2B2B" fill-rule="nonzero" />
	<g transform="matrix(0.04728131 0 0 -0.0472549 0 241)">
	</g>
    <path transform="matrix(0.04728131 0 0 -0.0472549 0 241)"  d="M7591 1768C 7592 1554 7596 1521 7631 1472C 7685 1398 7840 1389 7920 1456L7920 1456L7950 1482L7950 1451L7950 1420L8025 1420L8100 1420L8100 1700L8100 1980L8025 1980L7950 1980L7950 1840C 7950 1666 7938 1606 7895 1563C 7854 1522 7813 1520 7773 1554L7773 1554L7745 1578L7742 1779L7739 1980L7664 1980L7590 1980L7591 1768z" stroke="none" fill="#2A2B2B" fill-rule="nonzero" />
	<g transform="matrix(0.04728131 0 0 -0.0472549 0 241)">
	</g>
    <path transform="matrix(0.04728131 0 0 -0.0472549 0 241)"  d="M9640 1778C 9640 1666 9645 1558 9650 1538C 9688 1403 9853 1367 9988 1466C 10010 1482 10010 1482 10010 1451L10010 1451L10010 1420L10080 1420L10150 1420L10150 1700L10150 1980L10076 1980L10002 1980L9998 1808C 9996 1663 9992 1629 9976 1597C 9932 1508 9825 1508 9800 1598C 9795 1618 9790 1713 9790 1808L9790 1808L9790 1980L9715 1980L9640 1980L9640 1778z" stroke="none" fill="#2A2B2B" fill-rule="nonzero" />
	<g transform="matrix(0.04728131 0 0 -0.0472549 0 241)">
	</g>
    <path transform="matrix(0.04728131 0 0 -0.0472549 0 241)"  d="M13030 1768C 13030 1537 13037 1503 13091 1453C 13161 1389 13298 1396 13373 1467L13373 1467L13400 1494L13400 1457L13400 1420L13470 1420L13540 1420L13540 1700L13540 1980L13466 1980L13392 1980L13388 1808C 13385 1669 13381 1629 13367 1603C 13319 1514 13228 1505 13194 1585C 13184 1610 13180 1667 13180 1800L13180 1800L13180 1980L13105 1980L13030 1980L13030 1768z" stroke="none" fill="#2A2B2B" fill-rule="nonzero" />
	<g transform="matrix(0.04728131 0 0 -0.0472549 0 241)">
	</g>
    <path transform="matrix(0.04728131 0 0 -0.0472549 0 241)"  d="M8980 1715L8980 1650L9125 1650L9270 1650L9270 1715L9270 1780L9125 1780L8980 1780L8980 1715z" stroke="none" fill="#2A2B2B" fill-rule="nonzero" />
	<g transform="matrix(0.04728131 0 0 -0.0472549 0 241)">
	</g>
    <path transform="matrix(0.04728131 0 0 -0.0472549 0 241)"  d="M5664 907C 5558 880 5489 822 5443 725C 5417 670 5415 655 5415 550C 5415 450 5418 428 5439 382C 5470 314 5552 238 5622 213C 5693 189 5843 189 5923 213L5923 213L5980 231L5980 410L5980 590L5860 590L5740 590L5740 555L5740 520L5820 520L5900 520L5900 401C 5900 265 5905 272 5799 263C 5662 251 5553 314 5509 428C 5468 537 5493 691 5564 768C 5623 834 5750 864 5855 837C 5888 829 5922 820 5930 818C 5941 816 5946 825 5948 852C 5951 887 5949 889 5913 899C 5850 917 5720 921 5664 907z" stroke="none" fill="#2A2B2B" fill-rule="nonzero" />
	<g transform="matrix(0.04728131 0 0 -0.0472549 0 241)">
	</g>
    <path transform="matrix(0.04728131 0 0 -0.0472549 0 241)"  d="M14024 910C 13925 889 13838 824 13795 740C 13727 605 13745 408 13835 302C 13857 277 13898 248 13938 228C 14001 197 14010 195 14110 196C 14244 197 14270 207 14270 256C 14270 286 14267 291 14253 285C 14210 268 14119 258 14069 264C 13999 273 13918 319 13885 368C 13805 489 13821 678 13918 773C 13996 849 14102 866 14248 824C 14268 818 14270 821 14270 854C 14270 884 14265 892 14245 900C 14208 914 14071 920 14024 910z" stroke="none" fill="#2A2B2B" fill-rule="nonzero" />
	<g transform="matrix(0.04728131 0 0 -0.0472549 0 241)">
	</g>
    <path transform="matrix(0.04728131 0 0 -0.0472549 0 241)"  d="M9312 863C 9245 704 9050 220 9050 210C 9050 203 9064 200 9087 202C 9123 205 9124 206 9160 295L9160 295L9196 385L9366 388L9536 390L9574 295L9612 200L9651 200C 9672 200 9690 203 9690 208C 9690 212 9629 371 9553 562L9553 562L9415 910L9374 910C 9334 910 9332 908 9312 863zM9441 632L9507 465L9372 462C 9298 461 9236 461 9234 463C 9232 465 9260 544 9297 638C 9334 732 9367 806 9370 804C 9373 801 9405 723 9441 632z" stroke="none" fill="#2A2B2B" fill-rule="nonzero" />
	<g transform="matrix(0.04728131 0 0 -0.0472549 0 241)">
	</g>
    <path transform="matrix(0.04728131 0 0 -0.0472549 0 241)"  d="M15543 848C 15523 838 15520 829 15520 778L15520 778L15520 720L15470 720C 15421 720 15420 719 15420 690C 15420 661 15421 660 15470 660L15470 660L15520 660L15520 493C 15521 305 15529 247 15557 219C 15580 196 15635 185 15684 194C 15716 200 15720 204 15720 233C 15720 265 15720 265 15677 262C 15602 256 15600 262 15600 476L15600 476L15600 660L15655 660C 15709 660 15710 660 15710 690C 15710 720 15709 720 15655 720L15655 720L15600 720L15600 790C 15600 866 15593 872 15543 848z" stroke="none" fill="#2A2B2B" fill-rule="nonzero" />
	<g transform="matrix(0.04728131 0 0 -0.0472549 0 241)">
	</g>
    <path transform="matrix(0.04728131 0 0 -0.0472549 0 241)"  d="M6235 716C 6188 696 6133 627 6116 569C 6087 472 6100 347 6146 278C 6193 205 6311 174 6430 202C 6484 215 6485 216 6488 253C 6492 295 6488 296 6434 274C 6377 250 6279 258 6244 290C 6214 318 6181 384 6180 418C 6180 440 6180 440 6350 440L6350 440L6520 440L6520 499C 6520 603 6476 685 6403 716C 6363 733 6275 733 6235 716zM6388 644C 6413 628 6433 587 6443 533L6443 533L6450 500L6315 500C 6165 500 6167 499 6195 567C 6234 660 6315 692 6388 644z" stroke="none" fill="#2A2B2B" fill-rule="nonzero" />
	<g transform="matrix(0.04728131 0 0 -0.0472549 0 241)">
	</g>
    <path transform="matrix(0.04728131 0 0 -0.0472549 0 241)"  d="M6775 719C 6764 713 6743 694 6728 677L6728 677L6700 646L6700 683C 6700 719 6699 720 6665 720L6665 720L6630 720L6630 460L6630 200L6670 200L6710 200L6710 368C 6710 509 6713 541 6729 575C 6756 634 6781 653 6835 652L6835 652L6880 651L6880 690L6880 730L6838 730C 6814 730 6786 725 6775 719z" stroke="none" fill="#2A2B2B" fill-rule="nonzero" />
	<g transform="matrix(0.04728131 0 0 -0.0472549 0 241)">
	</g>
    <path transform="matrix(0.04728131 0 0 -0.0472549 0 241)"  d="M7104 716C 7087 708 7064 690 7052 675L7052 675L7030 647L7030 684C 7030 719 7029 720 6995 720L6995 720L6960 720L6960 460L6960 200L7000 200L7040 200L7040 378C 7040 543 7042 558 7063 595C 7107 674 7197 690 7244 627C 7263 601 7265 584 7268 399L7268 399L7271 200L7306 200L7340 200L7340 358C 7340 534 7348 576 7391 624C 7426 664 7460 675 7506 660C 7564 640 7570 617 7570 395L7570 395L7570 200L7611 200L7651 200L7648 408C 7645 594 7643 619 7625 649C 7596 698 7558 722 7502 728C 7437 734 7388 717 7351 674L7351 674L7321 640L7305 671C 7277 725 7176 747 7104 716z" stroke="none" fill="#2A2B2B" fill-rule="nonzero" />
	<g transform="matrix(0.04728131 0 0 -0.0472549 0 241)">
	</g>
    <path transform="matrix(0.04728131 0 0 -0.0472549 0 241)"  d="M7858 714C 7813 700 7810 697 7810 665C 7810 627 7818 623 7858 644C 7901 666 7966 673 8005 660C 8046 647 8070 608 8070 557L8070 557L8070 523L7981 518C 7831 509 7760 459 7753 356C 7748 287 7772 242 7830 213C 7900 177 7991 187 8050 236L8050 236L8080 262L8080 231C 8080 202 8082 200 8116 200L8116 200L8152 200L8148 408C 8144 650 8136 679 8066 711C 8016 733 7925 735 7858 714zM8070 415C 8070 315 8021 260 7933 260C 7889 260 7875 265 7855 285C 7807 332 7832 408 7902 434C 7951 451 7979 457 8033 459L8033 459L8070 460L8070 415z" stroke="none" fill="#2A2B2B" fill-rule="nonzero" />
	<g transform="matrix(0.04728131 0 0 -0.0472549 0 241)">
	</g>
    <path transform="matrix(0.04728131 0 0 -0.0472549 0 241)"  d="M8422 714C 8404 705 8380 686 8370 672L8370 672L8350 647L8350 684C 8350 719 8349 720 8314 720L8314 720L8277 720L8283 638C 8287 592 8290 475 8290 378L8290 378L8290 200L8325 200L8360 200L8360 372C 8360 527 8362 548 8381 588C 8410 647 8473 678 8530 661C 8606 638 8620 594 8620 368L8620 368L8620 200L8656 200L8691 200L8688 408C 8685 635 8679 657 8617 704C 8579 732 8469 738 8422 714z" stroke="none" fill="#2A2B2B" fill-rule="nonzero" />
	<g transform="matrix(0.04728131 0 0 -0.0472549 0 241)">
	</g>
    <path transform="matrix(0.04728131 0 0 -0.0472549 0 241)"  d="M9864 711C 9818 690 9774 639 9754 583C 9736 530 9736 383 9755 329C 9772 281 9810 236 9853 213C 9894 192 10005 186 10065 202C 10113 214 10115 217 10118 253C 10120 273 10119 290 10117 290C 10114 290 10093 283 10069 274C 9951 233 9847 276 9825 376C 9821 392 9816 413 9813 423C 9809 439 9822 440 9984 440L9984 440L10160 440L10160 483C 10159 592 10116 679 10047 711C 9994 735 9917 735 9864 711zM10032 633C 10059 608 10080 556 10080 518C 10080 502 10067 500 9945 500L9945 500L9810 500L9816 528C 9846 650 9957 704 10032 633z" stroke="none" fill="#2A2B2B" fill-rule="nonzero" />
	<g transform="matrix(0.04728131 0 0 -0.0472549 0 241)">
	</g>
    <path transform="matrix(0.04728131 0 0 -0.0472549 0 241)"  d="M10379 691L10340 652L10340 686C 10340 719 10339 720 10299 720C 10266 720 10259 717 10264 704C 10267 695 10270 578 10270 444L10270 444L10270 200L10304 200L10338 200L10342 373C 10345 516 10349 551 10364 583C 10388 632 10420 652 10470 652C 10510 651 10510 651 10510 691L10510 691L10510 730L10464 730C 10424 730 10413 725 10379 691z" stroke="none" fill="#2A2B2B" fill-rule="nonzero" />
	<g transform="matrix(0.04728131 0 0 -0.0472549 0 241)">
	</g>
    <path transform="matrix(0.04728131 0 0 -0.0472549 0 241)"  d="M10695 718C 10641 699 10598 659 10572 601C 10550 555 10545 530 10545 459C 10545 383 10548 367 10575 315C 10611 244 10670 203 10747 193C 10854 181 10947 226 10992 314C 11022 372 11029 513 11005 576C 10982 636 10935 688 10885 711C 10840 732 10744 735 10695 718zM10844 650C 10896 625 10929 577 10939 511C 10963 356 10873 235 10752 261C 10704 271 10673 296 10650 341C 10602 434 10616 556 10681 621C 10733 673 10780 682 10844 650z" stroke="none" fill="#2A2B2B" fill-rule="nonzero" />
	<g transform="matrix(0.04728131 0 0 -0.0472549 0 241)">
	</g>
    <path transform="matrix(0.04728131 0 0 -0.0472549 0 241)"  d="M11171 712C 11119 686 11096 649 11096 590C 11096 527 11124 495 11227 443C 11268 422 11308 397 11317 388C 11343 359 11338 311 11306 283C 11273 255 11190 251 11133 275C 11114 283 11096 290 11094 290C 11092 290 11090 272 11090 251C 11090 212 11090 212 11140 201C 11317 163 11440 243 11410 376C 11398 427 11367 456 11268 506C 11200 540 11179 556 11174 576C 11154 656 11258 693 11373 645C 11387 639 11390 643 11390 673C 11390 706 11387 710 11353 719C 11295 736 11209 732 11171 712z" stroke="none" fill="#2A2B2B" fill-rule="nonzero" />
	<g transform="matrix(0.04728131 0 0 -0.0472549 0 241)">
	</g>
    <path transform="matrix(0.04728131 0 0 -0.0472549 0 241)"  d="M11662 715C 11645 707 11619 689 11605 674L11605 674L11580 647L11580 684C 11580 719 11579 720 11545 720L11545 720L11510 720L11510 360L11510 0L11545 0L11580 0L11580 138L11580 275L11603 248C 11666 170 11807 172 11882 251C 11928 299 11950 369 11950 465C 11950 592 11911 677 11836 711C 11787 733 11708 735 11662 715zM11800 642C 11845 609 11870 545 11870 460C 11869 330 11821 260 11729 260C 11641 260 11588 335 11587 460C 11587 620 11698 715 11800 642z" stroke="none" fill="#2A2B2B" fill-rule="nonzero" />
	<g transform="matrix(0.04728131 0 0 -0.0472549 0 241)">
	</g>
    <path transform="matrix(0.04728131 0 0 -0.0472549 0 241)"  d="M12138 715C 12093 700 12090 697 12090 665C 12090 625 12089 625 12134 644C 12258 696 12350 659 12350 557L12350 557L12350 523L12260 518C 12107 509 12039 460 12033 353C 12027 259 12072 205 12166 194C 12227 186 12290 203 12330 236L12330 236L12360 262L12360 231C 12360 202 12362 200 12396 200L12396 200L12432 200L12429 408C 12424 635 12419 658 12357 704C 12321 731 12206 736 12138 715zM12350 415C 12350 315 12301 260 12213 260C 12169 260 12155 265 12135 285C 12108 311 12102 357 12120 391C 12140 427 12223 456 12313 459L12313 459L12350 460L12350 415z" stroke="none" fill="#2A2B2B" fill-rule="nonzero" />
	<g transform="matrix(0.04728131 0 0 -0.0472549 0 241)">
	</g>
    <path transform="matrix(0.04728131 0 0 -0.0472549 0 241)"  d="M12689 717C 12587 679 12538 607 12532 486C 12527 390 12539 338 12580 282C 12628 215 12677 195 12792 195C 12901 195 12916 202 12905 250C 12900 274 12894 280 12882 275C 12803 245 12718 256 12670 303C 12626 345 12608 392 12608 460C 12608 623 12733 708 12882 646C 12894 640 12900 646 12905 670C 12909 688 12908 706 12902 712C 12885 729 12730 732 12689 717z" stroke="none" fill="#2A2B2B" fill-rule="nonzero" />
	<g transform="matrix(0.04728131 0 0 -0.0472549 0 241)">
	</g>
    <path transform="matrix(0.04728131 0 0 -0.0472549 0 241)"  d="M13091 708C 13003 665 12965 576 12972 433C 12981 257 13071 176 13240 193C 13331 203 13350 213 13350 255C 13350 274 13348 290 13346 290C 13344 290 13323 283 13299 274C 13171 229 13072 279 13050 401L13050 401L13043 440L13216 440L13390 440L13390 488C 13390 549 13370 619 13340 660C 13292 727 13175 750 13091 708zM13236 654C 13272 637 13310 572 13310 527L13310 527L13310 500L13180 500C 13058 500 13050 501 13050 519C 13050 571 13093 633 13145 656C 13184 673 13195 673 13236 654z" stroke="none" fill="#2A2B2B" fill-rule="nonzero" />
	<g transform="matrix(0.04728131 0 0 -0.0472549 0 241)">
	</g>
    <path transform="matrix(0.04728131 0 0 -0.0472549 0 241)"  d="M14521 708C 14474 685 14427 623 14410 560C 14395 507 14398 400 14416 339C 14437 267 14489 217 14560 200C 14616 187 14702 191 14758 211C 14786 220 14790 227 14790 256C 14790 295 14789 295 14735 275C 14675 254 14594 256 14554 280C 14518 303 14480 371 14480 413L14480 413L14480 440L14650 440L14820 440L14820 493C 14820 598 14782 671 14710 708C 14652 737 14580 737 14521 708zM14665 656C 14704 640 14740 579 14740 530L14740 530L14740 500L14610 500C 14486 500 14480 501 14480 520C 14480 546 14512 610 14537 632C 14556 650 14596 668 14618 669C 14625 670 14646 664 14665 656z" stroke="none" fill="#2A2B2B" fill-rule="nonzero" />
	<g transform="matrix(0.04728131 0 0 -0.0472549 0 241)">
	</g>
    <path transform="matrix(0.04728131 0 0 -0.0472549 0 241)"  d="M15080 719C 15066 714 15043 697 15028 683L15028 683L15000 656L15000 688C 15000 718 14998 720 14965 720L14965 720L14930 720L14930 460L14930 200L14965 200L15000 200L15000 339C 15000 503 15011 572 15045 616C 15098 685 15206 682 15242 610C 15257 580 15260 546 15260 388L15260 388L15260 200L15301 200L15342 200L15338 403C 15334 628 15327 660 15266 702C 15231 728 15123 737 15080 719z" stroke="none" fill="#2A2B2B" fill-rule="nonzero" />
	<g transform="matrix(0.04728131 0 0 -0.0472549 0 241)">
	</g>
    <path transform="matrix(0.04728131 0 0 -0.0472549 0 241)"  d="M15904 711C 15858 690 15814 639 15794 583C 15776 530 15776 383 15795 329C 15812 281 15850 236 15893 213C 15934 192 16045 186 16105 202C 16153 214 16155 217 16158 253C 16160 273 16159 290 16157 290C 16154 290 16133 283 16109 274C 16048 253 15977 254 15938 277C 15902 298 15866 356 15857 408L15857 408L15851 440L16025 440L16200 440L16200 483C 16199 592 16156 679 16087 711C 16034 735 15957 735 15904 711zM16072 633C 16099 608 16120 556 16120 518C 16120 502 16107 500 15986 500L15986 500L15852 500L15859 533C 15869 575 15883 600 15912 627C 15965 676 16024 679 16072 633z" stroke="none" fill="#2A2B2B" fill-rule="nonzero" />
	<g transform="matrix(0.04728131 0 0 -0.0472549 0 241)">
	</g>
    <path transform="matrix(0.04728131 0 0 -0.0472549 0 241)"  d="M16419 691L16380 652L16380 686C 16380 719 16379 720 16339 720C 16306 720 16299 717 16304 704C 16307 695 16310 578 16310 444L16310 444L16310 200L16344 200L16378 200L16382 373C 16385 527 16388 549 16408 587C 16434 637 16459 653 16512 652C 16550 651 16550 652 16550 691L16550 691L16550 730L16504 730C 16464 730 16453 725 16419 691z" stroke="none" fill="#2A2B2B" fill-rule="nonzero" />
</g>
</svg>